<svg t="1705826653861" class="icon" viewBox="0 0 1024 1024" version="1.1" xmlns="http://www.w3.org/2000/svg" p-id="10808" width="64" height="64"><path d="M944.1 138.8L832 64H688c-8.8 0-16-7.2-16-16V0h-64v48c0 8.8-7.2 16-16 16H432c-8.8 0-16-7.2-16-16V0h-64v48c0 8.8-7.2 16-16 16H112v256h224c8.8 0 16 7.2 16 16v32c0 8.8-7.2 16-16 16H192L79.9 458.8c-38 25.3-38 81.2 0 106.5L192 640h144c8.8 0 16 7.2 16 16v368h64V656c0-8.8 7.2-16 16-16h160c8.8 0 16 7.2 16 16v368h64V656c0-8.8 7.2-16 16-16h224V384H688c-8.8 0-16-7.2-16-16v-32c0-8.8 7.2-16 16-16h144l112.1-74.8c38-25.3 38-81.1 0-106.4zM416 336c0-8.8 7.2-16 16-16h160c8.8 0 16 7.2 16 16v32c0 8.8-7.2 16-16 16H432c-8.8 0-16-7.2-16-16v-32z" p-id="10809" fill="#5a5e66"></path></svg>
